# xmcd
#
# Track frame offsets:
#	150
#	9405
#	13881
#	42371
#	64004
#	94030
#	126683
#	158755
#
# Disc length: 2769 seconds
#
# Revision: 3
# Processed by: cddbd v1.5.1PL0 Copyright (c) Steve Scherf et al.
# Submitted via: EasyCDDAExtractor 5.1.0
#
DISCID=640acf08
DTITLE=Black Sabbath - Westfalenhalle Dortmund 18-09-89 Disc 1
DYEAR=1989
DGENRE=Hard Rock
TTITLE0=Ave Santani
TTITLE1=The Gates Of Hell
TTITLE2=Headless Cross
TTITLE3=Neon Knights
TTITLE4=Children Of The Sea
TTITLE5=Die Young
TTITLE6=When Death Calls
TTITLE7=War Pigs
EXTD=
EXTT0=
EXTT1=
EXTT2=
EXTT3=
EXTT4=
EXTT5=
EXTT6=
EXTT7=
PLAYORDER=
